# Blender v3.3.0 OBJ File: ''
# www.blender.org
mtllib stone.mtl
o Cube_Cube.008
v -0.805139 -0.559113 0.395147
v -0.511509 -0.223823 -0.502794
v 0.023415 1.891052 -0.416405
v -0.271413 1.383312 -0.518528
v -0.216727 0.475678 -0.777415
v 0.031936 -1.186257 0.290324
v -0.606081 -0.762713 0.454686
v 0.931242 0.550074 -0.035427
v 0.722797 -0.765963 0.343823
v 0.479001 1.532127 -0.377058
v 0.116077 0.337060 -0.859527
v 0.287262 1.730166 -0.495644
v -0.812374 -0.545636 0.383558
v -0.807056 -0.540921 0.395417
v -0.844984 -0.246691 -0.038094
v -0.166551 1.938360 -0.210533
v -0.369066 1.477087 -0.362308
v 0.441269 1.171063 0.468361
v -0.057824 0.365517 0.706435
v 0.689389 0.237661 0.610906
v 0.707819 0.519990 0.552710
v -0.078244 1.555748 0.476924
v -0.272352 0.810563 0.653992
v 0.413903 -0.888922 -0.662458
v 0.426489 -1.081345 -0.380233
v 0.854331 -0.382137 -0.245456
v 0.775938 -0.783864 0.087304
v 0.487734 -0.694129 -0.736051
v -0.122398 1.747054 0.133196
v -0.828679 -0.396163 0.172732
v -0.520855 1.296736 0.144305
v 0.459633 1.650596 0.056904
v 0.190049 1.847177 0.092241
v 0.671033 -0.538133 -0.490753
v 0.691308 0.435113 -0.480183
vt 0.646859 0.523925
vt 0.714767 0.690959
vt 0.779635 0.585345
vt 0.613425 0.259470
vt 0.449730 0.466238
vt 0.462369 0.524061
vt 0.475009 0.581884
vt 0.446188 0.646753
vt 0.418539 0.567250
vt 0.433842 0.453439
vt 0.592030 0.737395
vt 0.649898 0.796574
vt 0.555893 0.637773
vt 0.523961 0.662329
vt 0.517071 0.740034
vt 0.537517 0.729283
vt 0.692094 0.525627
vt 0.522195 0.392709
vt 0.531535 0.327616
vt 0.602501 0.295008
vt 0.745076 0.547002
vt 0.446336 0.300295
vt 0.414141 0.775747
vt 0.446580 0.697632
vt 0.615572 0.644799
vt 0.542786 0.615479
vt 0.640401 0.547137
vt 0.485311 0.245682
vt 0.483947 0.136509
vt 0.461115 0.054070
vt 0.462458 0.054168
vt 0.462236 0.056507
vt 0.661517 0.666179
vt 0.473092 0.096508
vt 0.531673 0.495253
vn -0.8370 0.5323 0.1267
vn 0.8302 -0.4427 -0.3388
vn 0.1564 0.1896 0.9693
vn -0.1254 0.2651 -0.9560
vn 0.0798 -0.2539 0.9639
vn 0.9150 0.3978 -0.0678
vn -0.5901 0.4741 -0.6535
vn -0.8097 0.1153 -0.5754
vn -0.8923 -0.1006 0.4401
vn -0.3318 -0.0490 0.9421
vn 0.4929 0.5556 0.6696
vn 0.9646 -0.0685 0.2545
vn 0.5035 -0.8484 0.1635
vn -0.5721 -0.6893 -0.4445
vn -0.3210 -0.2258 -0.9198
vn 0.6213 0.0649 -0.7809
vn 0.5255 0.1540 -0.8367
vn -0.6896 0.4332 0.5803
vn -0.8515 0.1992 0.4850
vn -0.9730 0.2144 -0.0852
vn 0.6048 0.7907 -0.0949
vn 0.8502 0.3565 0.3874
vn 0.2697 0.6677 0.6939
vn 0.0262 0.9653 0.2599
vn 0.8492 0.0178 -0.5278
vn 0.7910 0.2072 -0.5756
usemtl None
s off
f 31/1/1 29/2/1 16/3/1 17/4/1
f 28/5/2 34/6/2 26/7/2 27/8/2 25/9/2 24/10/2
f 18/11/3 22/12/3 23/13/3 19/14/3 20/15/3 21/16/3
f 12/17/4 11/18/4 5/19/4 4/20/4 3/21/4
f 20/15/5 19/14/5 7/22/5 6/23/5 9/24/5
f 32/25/6 8/26/6 10/27/6
f 4/20/7 17/4/7 16/3/7 3/21/7
f 5/19/8 2/28/8 15/29/8 17/4/8 4/20/8
f 1/30/9 14/31/9 13/32/9
f 14/31/10 1/30/10 7/22/10 19/14/10 23/13/10
f 33/33/11 18/11/11 32/25/11
f 9/24/12 27/8/12 26/7/12 8/26/12 21/16/12 20/15/12
f 6/23/13 25/9/13 27/8/13 9/24/13
f 13/32/14 30/34/14 15/29/14 2/28/14 24/10/14 25/9/14 6/23/14 7/22/14 1/30/14
f 5/19/15 11/18/15 28/5/15 24/10/15 2/28/15
f 35/35/16 34/6/16 28/5/16 11/18/16
f 12/17/17 35/35/17 11/18/17
f 23/13/18 22/12/18 29/2/18 31/1/18
f 14/31/19 23/13/19 31/1/19 30/34/19 13/32/19
f 30/34/20 31/1/20 17/4/20 15/29/20
f 3/21/21 33/33/21 32/25/21 10/27/21 12/17/21
f 18/11/22 21/16/22 8/26/22 32/25/22
f 29/2/23 22/12/23 18/11/23 33/33/23
f 16/3/24 29/2/24 33/33/24 3/21/24
f 8/26/25 26/7/25 34/6/25 35/35/25
f 10/27/26 8/26/26 35/35/26 12/17/26
