# Blender v3.3.0 OBJ File: ''
# www.blender.org
mtllib stone2.mtl
o Cube_Cube.023
v -0.433682 0.008359 -0.980205
v -0.369365 0.510343 -0.707400
v -0.552883 -0.434559 -0.544820
v -0.062488 -0.684345 1.038646
v -0.484183 -0.409027 1.194620
v -0.286255 0.517778 -0.675235
v -0.358094 0.598311 -0.659593
v -0.030377 -0.688872 1.036460
v 0.031255 -0.802679 -0.428571
v -0.043139 -0.697868 1.009143
v -0.158911 0.776371 -0.502451
v -0.358026 0.598844 -0.659304
v -0.358165 0.598873 -0.657743
v -0.463011 0.621011 0.520019
v -0.236506 0.789228 0.330738
v 0.773467 0.087914 -0.527232
v 0.657072 0.378256 0.629701
v 0.536158 0.589601 0.407539
v 0.501709 0.605052 -0.361900
v 0.477109 -0.452882 -0.898860
v 0.778687 -0.014762 -0.576742
v 0.521757 -0.388020 -0.851171
v 0.373760 -0.658161 -0.679779
v 0.428049 0.034282 1.469700
v 0.613162 0.221680 1.073197
v 0.460095 0.231201 1.371661
v 0.451229 -0.435451 1.193112
v 0.663643 -0.392777 0.560496
v 0.666224 -0.388220 0.558429
v 0.606957 -0.106209 1.143972
v 0.512879 -0.183896 1.342347
v 0.291637 0.456935 1.216550
v -0.041830 0.633491 1.053232
v -0.006543 0.725748 0.829060
v 0.282064 0.651685 0.799032
v -0.445179 -0.116156 1.367872
v -0.513559 -0.323710 1.244477
v -0.655352 -0.315785 0.793761
v -0.560723 -0.363424 1.113386
v -0.461485 0.434567 1.071629
v -0.520642 0.477122 0.866137
vt 0.418943 0.683317
vt 0.331995 0.553444
vt 0.395308 0.507537
vt 0.420381 0.524562
vt 0.497130 0.571776
vt 0.420178 0.683104
vt 0.431496 0.985757
vt 0.476545 0.965222
vt 0.612148 0.125800
vt 0.652011 0.177837
vt 0.434667 0.046982
vt 0.420574 0.002843
vt 0.639817 0.753171
vt 0.725995 0.662267
vt 0.506697 0.791893
vt 0.551754 0.775592
vt 0.794640 0.655577
vt 0.779901 0.578392
vt 0.753071 0.475677
vt 0.753049 0.475779
vt 0.754991 0.448066
vt 0.752797 0.475287
vt 0.700789 0.427091
vt 0.707531 0.410859
vt 0.241339 0.721511
vt 0.243890 0.724619
vt 0.237431 0.725296
vt 0.478206 0.741616
vt 0.462358 0.770010
vt 0.400560 0.768186
vt 0.261849 0.577602
vt 0.407627 0.195596
vt 0.498628 0.284525
vt 0.750688 0.703712
vt 0.691271 0.702587
vt 0.642940 0.589564
vt 0.516865 0.576054
vt 0.544952 0.734061
vt 0.575622 0.688232
vt 0.636374 0.664882
vt 0.650133 0.172466
vt 0.410426 0.983322
vt 0.420574 0.911878
vt 0.755786 0.450341
vn 0.8493 -0.5206 -0.0871
vn -0.9447 0.1332 0.2996
vn -0.1808 0.4618 0.8684
vn -0.6322 0.7716 -0.0708
vn 0.2928 0.4273 -0.8554
vn -0.1067 -0.9285 0.3556
vn 0.8850 -0.3781 0.2717
vn -0.9804 0.1747 -0.0906
vn -0.2598 -0.6405 -0.7227
vn 0.2666 0.8758 0.4024
vn 0.4413 -0.8930 0.0879
vn 0.8879 0.0809 0.4528
vn 0.9950 0.0026 0.0994
vn 0.2494 0.9684 0.0083
vn 0.6475 0.6962 0.3099
vn -0.3987 0.8684 0.2946
vn -0.5376 -0.8425 0.0336
vn -0.9804 0.1748 -0.0906
vn -0.0130 -0.5078 0.8614
vn 0.8808 0.4725 -0.0299
vn -0.7512 -0.5062 0.4236
usemtl None
s off
f 28/1/1 23/2/1 20/3/1 22/4/1 21/5/1 29/6/1
f 37/7/2 36/8/2 40/9/2 41/10/2 38/11/2 39/12/2
f 32/13/3 33/14/3 40/9/3 36/8/3 24/15/3 26/16/3
f 15/17/4 11/18/4 12/19/4 13/20/4 14/21/4
f 7/22/5 6/23/5 2/24/5
f 10/25/6 8/26/6 4/27/6
f 28/1/7 29/6/7 30/28/7 31/29/7 27/30/7
f 13/20/8 12/19/8 7/22/8
f 20/3/9 23/2/9 9/31/9 3/32/9 1/33/9
f 34/34/10 33/14/10 32/13/10 35/35/10
f 11/18/5 19/36/5 6/23/5 7/22/5 12/19/5
f 28/1/11 27/30/11 8/26/11 10/25/11 9/31/11 23/2/11
f 19/36/5 16/37/5 21/5/5 22/4/5 6/23/5
f 6/23/5 22/4/5 20/3/5 1/33/5 2/24/5
f 24/15/12 31/29/12 30/28/12 25/38/12 26/16/12
f 25/38/13 30/28/13 29/6/13 21/5/13 16/37/13 17/39/13
f 19/36/14 11/18/14 15/17/14 34/34/14 35/35/14 18/40/14
f 17/39/15 18/40/15 35/35/15 32/13/15 26/16/15 25/38/15
f 33/14/16 34/34/16 15/17/16 14/21/16 41/41/16 40/9/16
f 4/27/17 5/42/17 39/43/17 38/11/17 3/32/17 9/31/17 10/25/17
f 13/20/18 7/22/18 2/24/18 1/33/18 3/32/18 38/11/18 41/10/18 14/44/18
f 31/29/19 24/15/19 36/8/19 37/7/19 5/42/19 4/27/19 8/26/19 27/30/19
f 16/37/20 19/36/20 18/40/20 17/39/20
f 5/42/21 37/7/21 39/12/21
